<svg width="1440" height="192" viewBox="0 0 1440 192" fill="none" xmlns="http://www.w3.org/2000/svg">
  <path d="M0 12.5L66.5 12.5C107.5 12.5 184 17.8 264 44.5C344 70.8 405 92.5 488.5 92.5C572 92.5 620.07 76.5662 709 56.5C806.5 34.5 875 34.1813 960 51.5C1040 67.8 1100.5 93.5 1185 93.5C1272 93.5 1360 32 1400 16L1440 0V192H1400C1360 192 1280 192 1200 192C1120 192 1040 192 960 192C880 192 800 192 720 192C640 192 560 192 480 192C400 192 320 192 240 192C160 192 80 192 40 192H0V12.5Z" fill="#FEC882"/>
</svg>
